HIERARCHY
ROOT Hips
{
 OFFSET 0.000000 0.000000 0.000000
 CHANNELS 6 Xposition Yposition Zposition Yrotation Xrotation Zrotation
 JOINT Chest
 {
  OFFSET 0.000000 9.857222 0.000240
  CHANNELS 3 Yrotation Xrotation Zrotation
  JOINT Chest2
  {
   OFFSET 0.000000 10.876940 -0.000436
   CHANNELS 3 Yrotation Xrotation Zrotation
   JOINT Chest3
   {
    OFFSET 0.000000 9.827798 0.000000
    CHANNELS 3 Yrotation Xrotation Zrotation
    JOINT Chest4
    {
     OFFSET 0.000000 9.827798 0.000000
     CHANNELS 3 Yrotation Xrotation Zrotation
     JOINT Neck
     {
      OFFSET 0.000000 13.831992 0.000000
      CHANNELS 3 Yrotation Xrotation Zrotation
      JOINT Head
      {
       OFFSET 0.000000 9.147643 -0.001036
       CHANNELS 3 Yrotation Xrotation Zrotation
       End Site
       {
        OFFSET 0.000000 17.515799 -0.000541
       }
      }
     }
     JOINT RightCollar
     {
      OFFSET -3.001579 7.717577 0.000000
      CHANNELS 3 Yrotation Xrotation Zrotation
      JOINT RightShoulder
      {
       OFFSET -14.002642 0.000000 0.000000
       CHANNELS 3 Yrotation Xrotation Zrotation
       JOINT RightElbow
       {
        OFFSET -30.053852 0.000000 0.000000
        CHANNELS 3 Yrotation Xrotation Zrotation
        JOINT RightWrist
        {
         OFFSET -24.564923 0.000000 -0.000000
         CHANNELS 3 Yrotation Xrotation Zrotation
         End Site
         {
          OFFSET -18.334355 0.000000 0.000000
         }
        }
       }
      }
     }
     JOINT LeftCollar
     {
      OFFSET 3.001579 7.717577 0.000000
      CHANNELS 3 Yrotation Xrotation Zrotation
      JOINT LeftShoulder
      {
       OFFSET 14.002642 0.000000 0.000000
       CHANNELS 3 Yrotation Xrotation Zrotation
       JOINT LeftElbow
       {
        OFFSET 30.053852 0.000000 0.000000
        CHANNELS 3 Yrotation Xrotation Zrotation
        JOINT LeftWrist
        {
         OFFSET 24.564923 0.000000 -0.000000
         CHANNELS 3 Yrotation Xrotation Zrotation
         End Site
         {
          OFFSET 18.334355 0.000000 0.000000
         }
        }
       }
      }
     }
    }
   }
  }
 }
 JOINT RightHip
 {
  OFFSET -8.003235 -0.001175 -0.000120
  CHANNELS 3 Yrotation Xrotation Zrotation
  JOINT RightKnee
  {
   OFFSET 0.000000 -41.759727 0.000113
   CHANNELS 3 Yrotation Xrotation Zrotation
   JOINT RightAnkle
   {
    OFFSET 0.000000 -40.728748 0.000159
    CHANNELS 3 Yrotation Xrotation Zrotation
    JOINT RightToe
    {
     OFFSET 0.000000 -6.515296 14.732841
     CHANNELS 3 Yrotation Xrotation Zrotation
     End Site
     {
      OFFSET 0.000000 -1.502839 6.412115
     }
    }
   }
  }
 }
 JOINT LeftHip
 {
  OFFSET 8.003235 -0.001175 -0.000120
  CHANNELS 3 Yrotation Xrotation Zrotation
  JOINT LeftKnee
  {
   OFFSET 0.000000 -41.759727 0.000113
   CHANNELS 3 Yrotation Xrotation Zrotation
   JOINT LeftAnkle
   {
    OFFSET 0.000000 -40.728748 0.000159
    CHANNELS 3 Yrotation Xrotation Zrotation
    JOINT LeftToe
    {
     OFFSET 0.000000 -6.515296 14.732841
     CHANNELS 3 Yrotation Xrotation Zrotation
     End Site
     {
      OFFSET 0.000000 -1.502839 6.412115
     }
    }
   }
  }
 }
}
MOTION
Frames: 7
Frame Time: 0.016667
0.000000 88.822259 0.000000 0.000000 -5.826342 0.000000 0.000000 11.116423 0.000000 0.000000 -5.290081 0.000000 0.000000 0.000000 0.000000 0.000000 0.000000 0.000000 0.000000 12.665069 0.000000 0.000000 0.575450 0.000000 0.000000 0.000000 0.000000 0.000000 0.000000 0.000000 2.337306 0.000000 0.000000 -2.337306 0.000000 0.000000 0.000000 0.000000 0.000000 0.000000 0.000000 0.000000 -2.337306 0.000000 0.000000 2.337306 0.000000 0.000000 0.000000 8.578828 0.000000 0.000000 1.905768 0.000000 0.000000 -4.658254 0.000000 0.000000 0.000000 0.000000 0.000000 8.578828 0.000000 0.000000 1.905768 0.000000 0.000000 -4.658254 0.000000 0.000000 0.000000 0.000000
5.633766 90.046121 19.787115 -31.441309 -18.299250 0.806512 1.655097 10.156776 -0.752984 0.764401 4.471471 -0.192783 0.764401 4.471471 -0.192783 0.574423 3.353369 -0.150117 -9.461902 21.709435 1.967376 -17.667881 4.918230 6.168852 8.042286 5.218320 9.685396 50.801997 -10.187780 78.853779 9.457536 6.623303 0.224331 -0.998899 3.812841 -3.565198 -26.639800 9.510728 -12.933315 -31.722254 5.933686 -56.781210 -23.179624 -47.059056 2.421080 1.860503 11.365416 3.388412 4.094529 27.340798 -6.961523 -4.857985 -2.779968 5.604311 -2.588601 -5.730005 2.718375 -0.408517 -0.018500 -0.094019 13.613013 13.097598 6.034088 -1.866975 14.272016 1.007028 -0.790558 -6.945082 -3.613563 0.101332 0.333355 -0.056837
5.680552 90.063915 19.787641 -31.462959 -18.128870 0.745840 1.698270 10.125666 -0.706549 0.790900 4.455814 -0.181927 0.790900 4.455814 -0.181927 0.594204 3.341633 -0.142154 -9.458540 21.700875 1.977370 -17.665318 4.903627 6.187105 8.049608 5.235223 9.658440 50.863854 -10.316726 78.733045 9.260765 7.030146 0.382672 -0.976302 3.882460 -3.404926 -26.616424 9.458476 -12.884523 -31.725946 5.931295 -56.716741 -23.759051 -47.325953 2.917113 1.860659 11.406253 3.342274 3.938975 27.127972 -7.003814 -4.796045 -2.770056 5.588159 -2.556116 -5.729397 2.738954 -0.378723 -0.004397 -0.094347 13.484103 12.983716 5.986657 -2.129994 14.167496 0.944744 -0.474353 -6.902401 -3.595559 0.082477 0.321435 -0.043349
5.743849 90.082755 19.772490 -31.462609 -17.972788 0.681339 1.723147 10.107272 -0.655407 0.809473 4.446049 -0.172353 0.809473 4.446049 -0.172353 0.608056 3.334316 -0.135099 -9.451940 21.682898 1.990395 -17.658591 4.871729 6.211252 8.077057 5.272668 9.647102 50.780647 -10.463226 78.532985 9.220503 7.292726 0.529368 -0.970759 3.923191 -3.278177 -26.586199 9.406679 -12.843032 -31.753284 5.975393 -56.682020 -24.467508 -47.462605 3.466451 1.850964 11.427785 3.303609 3.892080 26.923414 -7.002101 -4.778283 -2.750253 5.574410 -2.587038 -5.722628 2.765390 -0.352006 0.010295 -0.092558 13.178486 12.842206 5.922659 -2.101390 14.136471 0.860062 -0.315441 -6.865291 -3.544109 0.073996 0.295919 -0.026942
5.819221 90.104698 19.753078 -31.455126 -17.877026 0.630764 1.731022 10.128807 -0.616893 0.824018 4.449705 -0.163532 0.824018 4.449705 -0.163532 0.618895 3.337066 -0.128598 -9.444670 21.654784 2.005775 -17.652228 4.821439 6.240852 8.120910 5.312186 9.652484 50.598283 -10.605106 78.262741 9.357500 7.352882 0.654454 -0.980167 3.929425 -3.200438 -26.547585 9.342337 -12.806960 -31.775357 6.077904 -56.671278 -25.304047 -47.476328 4.071620 1.857806 11.457042 3.278270 3.921193 26.789029 -6.977564 -4.771506 -2.744081 5.561802 -2.623289 -5.707024 2.785017 -0.335622 0.022780 -0.089703 12.901017 12.746662 5.841960 -1.856999 14.113408 0.867550 -0.354856 -6.813222 -3.510111 0.070244 0.261421 -0.010855
5.892602 90.130381 19.738745 -31.470551 -17.847146 0.599170 1.742521 10.188229 -0.593257 0.838901 4.469939 -0.158142 0.838901 4.469939 -0.158142 0.630015 3.352245 -0.124693 -9.435429 21.620199 2.024204 -17.643745 4.759453 6.276307 8.176203 5.335817 9.682602 50.381715 -10.732827 77.960623 9.644712 7.273838 0.755923 -1.019307 3.907183 -3.188992 -26.510555 9.284263 -12.765828 -31.774900 6.196760 -56.663984 -26.196303 -47.336049 4.683408 1.872944 11.459742 3.276810 4.009992 26.740074 -6.953108 -4.803845 -2.760440 5.558676 -2.685601 -5.668139 2.814600 -0.325860 0.023819 -0.091113 12.815860 12.715603 5.811567 -1.642304 14.065964 0.879605 -0.476923 -6.742337 -3.463040 0.069230 0.222089 0.001718
5.959262 90.157337 19.738973 -31.473953 -17.842483 0.578380 1.740648 10.266264 -0.579936 0.847302 4.497856 -0.158159 0.847302 4.497856 -0.158159 0.636316 3.373181 -0.124806 -9.425163 21.580872 2.044012 -17.634245 4.688818 6.314632 8.235748 5.341004 9.725374 50.187244 -10.838095 77.659092 10.037861 7.164549 0.804291 -1.075577 3.851758 -3.235397 -26.465593 9.228780 -12.714862 -31.784495 6.277773 -56.709622 -27.088592 -47.060240 5.337021 1.886110 11.447015 3.288365 4.051132 26.746655 -6.951720 -4.917762 -2.807038 5.563420 -2.629957 -5.615085 2.840355 -0.310978 0.018148 -0.092839 12.884194 12.702157 5.798628 -1.604808 14.024674 0.908870 -0.548555 -6.671053 -3.431122 0.068175 0.175572 0.011914
